<svg width="18" height="20" viewBox="0 0 18 20" fill="none" xmlns="http://www.w3.org/2000/svg">
<path d="M1.5 5.06675H3.16667M3.16667 5.06675H16.5M3.16667 5.06675V16.9667C3.16667 17.4176 3.34226 17.85 3.65482 18.1688C3.96738 18.4876 4.39131 18.6667 4.83333 18.6667H13.1667C13.6087 18.6667 14.0326 18.4876 14.3452 18.1688C14.6577 17.85 14.8333 17.4176 14.8333 16.9667V5.06675H3.16667ZM5.66667 5.06675V3.36675C5.66667 2.91588 5.84226 2.48348 6.15482 2.16467C6.46738 1.84585 6.89131 1.66675 7.33333 1.66675H10.6667C11.1087 1.66675 11.5326 1.84585 11.8452 2.16467C12.1577 2.48348 12.3333 2.91588 12.3333 3.36675V5.06675M7.33333 9.31675V14.4167M10.6667 9.31675V14.4167" stroke="#667085" stroke-width="1.66667" stroke-linecap="round" stroke-linejoin="round"/>
</svg>
