<svg width="28" height="30" viewBox="0 0 28 30" fill="none" xmlns="http://www.w3.org/2000/svg">
<path d="M14.8753 26.7595V29.8335H17.8876L25.2334 22.337L22.2212 19.263L14.8753 26.7595Z" fill="white"/>
<path d="M23.4005 9.5335L14.8753 0.833496H3.50839C1.94544 0.833496 0.680865 2.1385 0.680865 3.7335L0.666656 26.9335C0.666656 28.5285 1.93123 29.8335 3.49418 29.8335H12.0336V25.556L23.4005 13.956V9.5335ZM13.4544 10.9835V3.0085L21.2692 10.9835H13.4544Z" fill="white"/>
<path d="M27.2511 18.2334L26.2422 17.2039C25.6881 16.6384 24.793 16.6384 24.2388 17.2039L23.23 18.2334L26.2422 21.3074L27.2511 20.2779C27.8052 19.7124 27.8052 18.7989 27.2511 18.2334Z" fill="white"/>
</svg>
