<svg width="20" height="20" viewBox="0 0 20 20" fill="none" xmlns="http://www.w3.org/2000/svg">
<path d="M14.527 2.51983C14.7521 2.29465 15.0195 2.11603 15.3137 1.99416C15.6079 1.87229 15.9232 1.80957 16.2417 1.80957C16.5601 1.80957 16.8754 1.87229 17.1697 1.99416C17.4639 2.11603 17.7312 2.29465 17.9564 2.51983C18.1815 2.74501 18.3602 3.01233 18.482 3.30654C18.6039 3.60075 18.6666 3.91609 18.6666 4.23454C18.6666 4.55299 18.6039 4.86832 18.482 5.16253C18.3602 5.45674 18.1815 5.72407 17.9564 5.94925L6.38208 17.5235L1.66663 18.8096L2.95266 14.0941L14.527 2.51983Z" stroke="#667085" stroke-width="1.66667" stroke-linecap="round" stroke-linejoin="round"/>
</svg>
