<svg width="24" height="28" viewBox="0 0 24 28" fill="none" xmlns="http://www.w3.org/2000/svg">
<path d="M3 28C2.175 28 1.469 27.7261 0.882 27.1782C0.294 26.6294 0 25.97 0 25.2V2.8C0 2.03 0.294 1.3706 0.882 0.8218C1.469 0.273933 2.175 0 3 0H21C21.825 0 22.5315 0.273933 23.1195 0.8218C23.7065 1.3706 24 2.03 24 2.8V25.2C24 25.97 23.7065 26.6294 23.1195 27.1782C22.5315 27.7261 21.825 28 21 28H3ZM11.625 11.97L14.25 10.5L16.875 11.97C17.125 12.11 17.375 12.11 17.625 11.97C17.875 11.83 18 11.6317 18 11.375V2.8H10.5V11.375C10.5 11.6317 10.625 11.83 10.875 11.97C11.125 12.11 11.375 12.11 11.625 11.97Z" fill="#B0B0B0"/>
</svg>
