<svg width="24" height="27" viewBox="0 0 24 27" fill="none" xmlns="http://www.w3.org/2000/svg">
<path d="M3 27C2.175 27 1.469 26.6981 0.882 26.0943C0.294 25.4895 0 24.7629 0 23.9143V10.0286C0 9.54 0.1065 9.07714 0.3195 8.64C0.5315 8.20286 0.825 7.84286 1.2 7.56L10.2 0.617143C10.475 0.411429 10.7625 0.257143 11.0625 0.154286C11.3625 0.0514284 11.675 0 12 0C12.325 0 12.6375 0.0514284 12.9375 0.154286C13.2375 0.257143 13.525 0.411429 13.8 0.617143L22.8 7.56C23.175 7.84286 23.469 8.20286 23.682 8.64C23.894 9.07714 24 9.54 24 10.0286V23.9143C24 24.7629 23.7065 25.4895 23.1195 26.0943C22.5315 26.6981 21.825 27 21 27H15V16.2H9V27H3Z" fill="#B0B0B0"/>
</svg>
