<svg width="28" height="32" viewBox="0 0 28 32" fill="none" xmlns="http://www.w3.org/2000/svg">
<path d="M24.8889 3.2H18.3867C17.7333 1.344 16.0222 0 14 0C11.9778 0 10.2667 1.344 9.61333 3.2H3.11111C1.4 3.2 0 4.64 0 6.4V28.8C0 30.56 1.4 32 3.11111 32H24.8889C26.6 32 28 30.56 28 28.8V6.4C28 4.64 26.6 3.2 24.8889 3.2ZM14 3.2C14.8556 3.2 15.5556 3.92 15.5556 4.8C15.5556 5.68 14.8556 6.4 14 6.4C13.1444 6.4 12.4444 5.68 12.4444 4.8C12.4444 3.92 13.1444 3.2 14 3.2ZM17.1111 25.6H6.22222V22.4H17.1111V25.6ZM21.7778 19.2H6.22222V16H21.7778V19.2ZM21.7778 12.8H6.22222V9.6H21.7778V12.8Z" fill="#B0B0B0"/>
</svg>
