<svg width="27" height="28" viewBox="0 0 27 28" fill="none" xmlns="http://www.w3.org/2000/svg">
<path d="M16.0974 28H10.9026C10.5563 28 10.2562 27.8833 10.0022 27.65C9.74825 27.4167 9.59818 27.125 9.552 26.775L9.13643 23.52C8.83629 23.4033 8.55369 23.2633 8.28865 23.1C8.02268 22.9367 7.76271 22.7617 7.50875 22.575L4.4958 23.835C4.17257 23.9517 3.84935 23.9633 3.52612 23.87C3.20289 23.7767 2.94893 23.5783 2.76423 23.275L0.201493 18.76C0.016791 18.4567 -0.0409282 18.13 0.0283349 17.78C0.0975979 17.43 0.270756 17.15 0.547808 16.94L3.14517 14.945C3.12209 14.7817 3.11054 14.6239 3.11054 14.4718V13.5268C3.11054 13.3756 3.12209 13.2183 3.14517 13.055L0.547808 11.06C0.270756 10.85 0.0975979 10.57 0.0283349 10.22C-0.0409282 9.87 0.016791 9.54333 0.201493 9.24L2.76423 4.725C2.92584 4.39833 3.1738 4.19393 3.50811 4.1118C3.84334 4.0306 4.17257 4.04833 4.4958 4.165L7.50875 5.425C7.76271 5.23833 8.02822 5.06333 8.30527 4.9C8.58232 4.73667 8.85938 4.59667 9.13643 4.48L9.552 1.225C9.59818 0.875 9.74825 0.583333 10.0022 0.35C10.2562 0.116667 10.5563 0 10.9026 0H16.0974C16.4437 0 16.7438 0.116667 16.9978 0.35C17.2517 0.583333 17.4018 0.875 17.448 1.225L17.8636 4.48C18.1637 4.59667 18.4468 4.73667 18.7127 4.9C18.9778 5.06333 19.2373 5.23833 19.4913 5.425L22.5042 4.165C22.8274 4.04833 23.1507 4.03667 23.4739 4.13C23.7971 4.22333 24.0511 4.42167 24.2358 4.725L26.7985 9.24C26.9832 9.54333 27.0409 9.87 26.9717 10.22C26.9024 10.57 26.7292 10.85 26.4522 11.06L23.8548 13.055C23.8779 13.2183 23.8895 13.3756 23.8895 13.5268V14.4718C23.8895 14.6239 23.8664 14.7817 23.8202 14.945L26.4176 16.94C26.6946 17.15 26.8678 17.43 26.937 17.78C27.0063 18.13 26.9486 18.4567 26.7639 18.76L24.2011 23.24C24.0164 23.5433 23.7569 23.7477 23.4226 23.8532C23.0874 23.9577 22.7582 23.9517 22.4349 23.835L19.4913 22.575C19.2373 22.7617 18.9718 22.9367 18.6947 23.1C18.4177 23.2633 18.1406 23.4033 17.8636 23.52L17.448 26.775C17.4018 27.125 17.2517 27.4167 16.9978 27.65C16.7438 27.8833 16.4437 28 16.0974 28ZM13.5693 18.9C14.9083 18.9 16.0512 18.4217 16.9978 17.465C17.9444 16.5083 18.4177 15.3533 18.4177 14C18.4177 12.6467 17.9444 11.4917 16.9978 10.535C16.0512 9.57833 14.9083 9.1 13.5693 9.1C12.2071 9.1 11.0582 9.57833 10.1227 10.535C9.18814 11.4917 8.72085 12.6467 8.72085 14C8.72085 15.3533 9.18814 16.5083 10.1227 17.465C11.0582 18.4217 12.2071 18.9 13.5693 18.9Z" fill="#B0B0B0"/>
</svg>
