<svg width="29" height="32" viewBox="0 0 29 32" fill="none" xmlns="http://www.w3.org/2000/svg">
<path fill-rule="evenodd" clip-rule="evenodd" d="M0.382276 1.73292C0.65748 1.20934 1.06701 0.771627 1.5672 0.466448C2.0674 0.161269 2.63951 5.85665e-05 3.22257 3.67681e-08H25.7774C26.3607 -8.88902e-05 26.9332 0.161132 27.4336 0.466464C27.934 0.771795 28.3437 1.20978 28.6189 1.73369C28.8941 2.25761 29.0245 2.84779 28.9962 3.44129C28.9679 4.03478 28.782 4.60931 28.4582 5.10359L19.3332 19.0441V26.2564C19.3332 26.7659 19.2167 27.2685 18.993 27.7242C18.7693 28.1799 18.4445 28.5763 18.0443 28.8821L14.8222 31.3436C14.3435 31.7093 13.7743 31.932 13.1783 31.9867C12.5823 32.0415 11.9832 31.9261 11.448 31.6535C10.9127 31.3809 10.4626 30.9619 10.148 30.4434C9.83344 29.9249 9.66681 29.3275 9.66681 28.7179V19.0457L0.541771 5.10195C0.218115 4.6078 0.0321887 4.03345 0.00381628 3.44013C-0.0245562 2.84681 0.107301 2.25677 0.382276 1.73292ZM12.8889 18.0513V28.7179L16.111 26.2564V18.0513L25.7774 3.28205H3.22257L12.8889 18.0513Z" fill="black"/>
</svg>
