<svg width="47" height="49" viewBox="0 0 47 49" fill="none" xmlns="http://www.w3.org/2000/svg">
<path d="M20.3669 4.8999C11.733 4.8999 4.7002 12.2319 4.7002 21.2332C4.7002 30.2345 11.733 37.5666 20.3669 37.5666C24.1214 37.5666 27.5694 36.1766 30.2717 33.8692L39.6258 43.6214C39.7702 43.7781 39.9431 43.9033 40.1345 43.9895C40.3258 44.0757 40.5317 44.1213 40.7401 44.1235C40.9486 44.1257 41.1553 44.0845 41.3483 44.0024C41.5413 43.9202 41.7166 43.7988 41.864 43.6451C42.0114 43.4915 42.1279 43.3087 42.2067 43.1075C42.2854 42.9063 42.3249 42.6908 42.3228 42.4735C42.3207 42.2562 42.277 42.0415 42.1943 41.842C42.1116 41.6425 41.9916 41.4622 41.8412 41.3117L32.4871 31.5596C34.7003 28.7423 36.0335 25.1475 36.0335 21.2332C36.0335 12.2319 29.0008 4.8999 20.3669 4.8999ZM20.3669 8.16657C27.3074 8.16657 32.9002 13.9974 32.9002 21.2332C32.9002 28.4691 27.3074 34.2999 20.3669 34.2999C13.4263 34.2999 7.83353 28.4691 7.83353 21.2332C7.83353 13.9974 13.4263 8.16657 20.3669 8.16657Z" fill="#A9A9A9"/>
</svg>
