<svg width="39" height="41" viewBox="0 0 39 41" fill="none" xmlns="http://www.w3.org/2000/svg">
<path d="M16.3669 0.899902C7.73296 0.899902 0.700195 8.23193 0.700195 17.2332C0.700195 26.2345 7.73296 33.5666 16.3669 33.5666C20.1214 33.5666 23.5694 32.1766 26.2717 29.8692L35.6258 39.6214C35.7702 39.7781 35.9431 39.9033 36.1345 39.9895C36.3258 40.0757 36.5317 40.1213 36.7401 40.1235C36.9486 40.1257 37.1553 40.0845 37.3483 40.0024C37.5413 39.9202 37.7166 39.7988 37.864 39.6451C38.0114 39.4915 38.1279 39.3087 38.2067 39.1075C38.2854 38.9063 38.3249 38.6908 38.3228 38.4735C38.3207 38.2562 38.277 38.0415 38.1943 37.842C38.1116 37.6425 37.9916 37.4622 37.8412 37.3117L28.4871 27.5596C30.7003 24.7423 32.0335 21.1475 32.0335 17.2332C32.0335 8.23193 25.0008 0.899902 16.3669 0.899902ZM16.3669 4.16657C23.3074 4.16657 28.9002 9.99737 28.9002 17.2332C28.9002 24.4691 23.3074 30.2999 16.3669 30.2999C9.42634 30.2999 3.83353 24.4691 3.83353 17.2332C3.83353 9.99737 9.42634 4.16657 16.3669 4.16657Z" fill="#A9A9A9"/>
</svg>
